<svg width="483.016" height="156.786" xmlns="http://www.w3.org/2000/svg" viewBox="8.492 -3.393 483.016 156.786" style="background:0 0" preserveAspectRatio="xMidYMid"><defs><linearGradient id="editing-gradow-gradient" x1="0" x2="1" y1=".5" y2=".5" gradientUnits="objectBoundingBox"><stop offset="0" stop-color="#f0f"/><stop offset="1" stop-color="#0ff"/></linearGradient><filter id="editing-gradow-filter" x="-100%" y="-100%" width="300%" height="300%"><feFlood flood-color="#fff" result="flood"/><feComposite operator="in" in2="SourceAlpha" in="flood" result="shadow"/><feOffset dx="-4" dy="-4" in="SourceGraphic" result="offset-1"/><feOffset dx="4" dy="4" in="shadow" result="offset-2"/><feMerge><feMergeNode in="offset-2"/><feMergeNode in="offset-1"/></feMerge></filter></defs><g filter="url(#editing-gradow-filter)"><path d="M18.48 16.56q-5.84 0-9.4-3-3.56-3-3.56-7.88 0-3.04 1.44-5.6 1.44-2.56 3.92-4.04t5.44-1.48q3.04 0 4.92 1.52t1.88 4q0 1.92-.88 3.04-.72-.96-1.96-1.52t-2.6-.56q-2.4 0-3.92 1.6T12.24 6.8q0 2.56 1.48 4.16t3.72 1.6q2.8 0 4.8-2.48t3.04-7.36l4-17.68h-.32q-2.16 3.04-5.24 4.64-3.08 1.6-6.76 1.6-4.64 0-8.16-2.48-3.52-2.48-5.4-7.08-1.88-4.6-1.88-10.68 0-8.8 3.84-16.04 3.84-7.24 10.56-11.4 6.72-4.16 14.8-4.16 6.8 0 10.76 2.96t3.96 8.08q0 3.44-1.68 5.52-1.68 2.08-4.4 2.08-1.52 0-2.84-.64-1.32-.64-2.2-1.84 1.44-.96 2.44-3.08t1-4.28q0-2.4-1.4-3.72-1.4-1.32-3.96-1.32-4.64 0-8.96 4.12-4.32 4.12-6.96 10.76-2.64 6.64-2.64 13.92 0 6 1.92 9.16t5.52 3.16q4.32 0 7.64-4.56 3.32-4.56 5.32-13.28l9.44.08-5.84 26.88Q35.28 5.36 30.6 10.96t-12.12 5.6zM43.2 0l8.48-40H63.2l-1.04 4.96q2.72-2.4 4.92-3.68Q69.28-40 71.84-40q2.56 0 4.04 1.76T77.36-34q0 2.32-1.52 4.08-1.52 1.76-4.24 1.76-1.76 0-2.36-.84-.6-.84-.92-2.44-.24-1.04-.48-1.52t-.88-.48q-1.68 0-2.84.68t-3 2.36L54.72 0H43.2zm42.72.48q-4.56 0-7.6-3.12t-3.04-9.76q0-5.92 2.36-12.44t7.04-11.04q4.68-4.52 11.16-4.52 3.28 0 4.88 1.12t1.6 2.96v.56l.88-4.24h11.52l-5.76 27.2q-.32 1.2-.32 2.56 0 3.44 3.28 3.44 2.24 0 3.88-2.08 1.64-2.08 2.6-5.44h3.36q-2.96 8.64-7.32 11.72T105.68.48q-3.36 0-5.4-1.88-2.04-1.88-2.44-5.48-2.32 3.28-5.16 5.32Q89.84.48 85.92.48zm5.2-7.76q2 0 3.96-1.88t2.68-5.16l3.84-18.08q0-1.04-.8-2.04t-2.48-1q-3.2 0-5.76 3.72-2.56 3.72-4 8.96t-1.44 9.24q0 4 1.16 5.12t2.84 1.12zM128 .48q-4.56 0-7.6-3.12t-3.04-9.76q0-5.92 2.36-12.44t7.04-11.04q4.68-4.52 11.16-4.52 3.28 0 4.88 1.12t1.6 2.96v.32l3.92-18.4 11.84-1.6-9.2 43.2q-.32 1.2-.32 2.56 0 1.6.76 2.28.76.68 2.52.68 2.24 0 3.88-1.92 1.64-1.92 2.6-5.12h3.36Q158.88 0 147.68 0q-3.28 0-5.32-1.76-2.04-1.76-2.52-5.12-2.08 3.2-5 5.28T128 .48zm5.2-7.76q1.92 0 3.88-1.76t2.68-4.88v-.4l3.92-18.32q-.72-2.8-3.28-2.8-3.2 0-5.76 3.72-2.56 3.72-4 8.96t-1.44 9.24q0 4 1.16 5.12t2.84 1.12zm40.56-37.04q-2.64 0-4.48-1.84-1.84-1.84-1.84-4.48 0-2.64 1.84-4.52 1.84-1.88 4.48-1.88 2.64 0 4.52 1.88 1.88 1.88 1.88 4.52 0 2.64-1.88 4.48-1.88 1.84-4.52 1.84zM168.32.48q-3.84 0-6.2-2.4-2.36-2.4-2.36-7.2 0-2 .64-5.2L165.84-40h11.52l-5.76 27.2q-.32 1.2-.32 2.56 0 1.6.76 2.28.76.68 2.52.68 2.32 0 4.32-1.96 2-1.96 2.88-5.08h3.36q-2.96 8.64-7.6 11.72t-9.2 3.08zm24.88 0q-5.92 0-9.2-3.08-3.28-3.08-3.28-9.64 0-5.52 2.16-12.16 2.16-6.64 7.04-11.48 4.88-4.84 12.4-4.84 8.8 0 8.8 7.68 0 4.48-2.56 8.24t-6.8 6.04q-4.24 2.28-9.04 2.6-.16 2.4-.16 3.2 0 3.92 1.36 5.32 1.36 1.4 4.4 1.4 4.32 0 7.4-2t6.76-6.08h2.72q-8.88 14.8-22 14.8zm.16-20.48q2.96-.16 5.64-2.08 2.68-1.92 4.32-4.88 1.64-2.96 1.64-6.24 0-3.28-2-3.28-2.88 0-5.64 5.04T193.36-20zm48 20.48q-4.88 0-7.16-2.6-2.28-2.6-2.28-6.44 0-1.68.4-3.8t.84-4.12q.44-2 .6-2.56.64-2.8 1.2-5.52.56-2.72.56-4.4 0-4.08-2.88-4.08-2.08 0-3.68 2.04t-2.56 5.32L220.96 0h-11.52l8.48-40h11.52l-.88 4.16q4-4.48 9.36-4.48 4.08 0 6.48 2.24 2.4 2.24 2.4 6.8 0 2.32-.56 5.16-.56 2.84-1.6 6.92-.64 2.48-1.16 4.84-.52 2.36-.52 3.72 0 1.6.72 2.48.72.88 2.48.88 2.4 0 3.84-1.72t2.88-5.32h3.36q-2.96 8.8-6.84 11.8t-8.04 3zm19.44 0q-3.84 0-6.2-2.4-2.36-2.4-2.36-7.2 0-2 .64-5.2l4.8-22.48h-2.64l.64-3.2h2.64l2.4-11.04 11.84-1.6L269.84-40h4.8l-.64 3.2h-4.8l-5.12 24q-.32 1.2-.32 2.56 0 1.6.76 2.28.76.68 2.52.68 2.32 0 4.32-1.96 2-1.96 2.88-5.08h3.36Q274.64-5.68 270-2.6T260.8.48zm22.24-.16q-2.64 0-4.48-1.84-1.84-1.84-1.84-4.48 0-2.64 1.84-4.52 1.84-1.88 4.48-1.88 2.64 0 4.52 1.88 1.88 1.88 1.88 4.52 0 2.64-1.88 4.48-1.88 1.84-4.52 1.84zM308-44.4q-2.64 0-4.48-1.84-1.84-1.84-1.84-4.48 0-2.64 1.84-4.52 1.84-1.88 4.48-1.88 2.64 0 4.52 1.88 1.88 1.88 1.88 4.52 0 2.64-1.88 4.48-1.88 1.84-4.52 1.84zM288.08 20q-3.84 0-6.4-2-2.56-2-2.56-5.76 0-7.76 13.12-11.92L300.8-40h11.52L304.4-2.88q3.84-1.28 6.16-3.84 2.32-2.56 3.92-7.6h3.36Q315.68-7.2 312-3.88q-3.68 3.32-8.32 4.52l-1.2 5.76q-1.6 7.76-5.52 10.68-3.92 2.92-8.88 2.92zm-1.84-6.24q1.36 0 2.64-1.84t2-5.28l.48-2.32q-7.84 2.88-7.84 6.8 0 1.04.72 1.84t2 .8zM323.6.48q-3.84 0-6.48-1.48-2.64-1.48-3.92-3.84-1.28-2.36-1.28-4.92 0-2.64 1.24-4.6 1.24-1.96 3-2.84 3.12-5.6 5.44-11.32 2.32-5.72 4.4-12.36l11.84-1.6q.4 10.24 1.36 22.16.4 4.8.4 6.96 0 1.84-.32 3.04 3.76-2.16 5.76-4h3.36q-5.12 5.92-12.24 10-2.32 2.48-5.72 3.64-3.4 1.16-6.84 1.16zm-2.56-6.32q2.96 0 4.96-1.76t2-5.68q0-2.4-.48-6.72-.8-9.12-1.04-12.24-1.92 6.32-6.48 15.12 1.84.96 1.84 2.8 0 1.52-1 2.72-1 1.2-2.52 1.2-1.68 0-2.16-1.04 0 2.88 1.16 4.24 1.16 1.36 3.72 1.36z" fill="url(#editing-gradow-gradient)" transform="translate(75.032 115.272)"/></g><style></style></svg>